<svg xmlns="http://www.w3.org/2000/svg" x="0px" y="0px" width="250px" height="250px">
<path d="M152.3,89.23l3.49-4.8l-28.96-0.14c-0.01-0.9-0.05-3.2-0.09-6.12c0.06,0.06,0.12,0.12,0.2,0.17
	c0.23,0.13,0.51,0.16,0.85,0.05l0.15-0.05l0.08-0.13c1.41-2.27,3.58-3.55,5.89-4.89c2.44-1.43,4.95-2.9,6.66-5.66
	c1.39-2.2,2.07-5.99,0.59-8.66l0,0c-3.14-5.55-9.12-5.18-14.92-4.84c-2.53,0.15-4.92,0.3-7.08-0.03l-0.18-0.03l-1.45,1.13l0.65,0.28
	c1.48,0.63,2.74,2.42,3.07,4.27l0.18,24.51l-26.71,0.17l-2.81,4.79l29.51-0.01l-0.09,5.47c-3.4-2.33-6.37-0.87-9.24,0.55
	c-2.64,1.3-5.14,2.53-8.12,1.22l-0.33-0.15l-0.19,0.31c-0.56,0.91-1.45,2.77-1.76,3.42l-5.63,0.31l-2.07,3.61l0.42,34.16l0.01,0.41
	l27.17,0.01c0,0.87-0.09,3.04-0.71,5.17l-0.28,0.94l0.87-0.46c1.92-1,3.62-2.03,5.19-3.13l0.18-0.13l0-0.22
	c-0.01-0.85,0.1-1.81,0.17-2.32l28.14,0.08l-0.27-35.68l-1.18-3.26l-7.08-0.14l-1.87-3.66l-0.33,0.1c-3.41,1.01-6.62-0.41-10.2-2.23
	c-2.5-1-5.33-0.17-7.41,0.68c-0.01-1.06,0-3.39,0.02-5.11L152.3,89.23z M104.71,98.81c3.01,1.11,5.79-0.29,8.24-1.53
	c3.09-1.56,5.77-2.91,8.55,0.32v27.87c-3.63-1.99-7.01-0.62-10.3,0.71c-2.03,0.82-4.13,1.68-6.25,1.69l-0.08-3.34
	C104.66,115.8,104.45,107.54,104.71,98.81z M99.4,103.82l0.59,29.96h21.78l-0.08,1.74l-24.22-0.01l-0.39-33.26l3.3-0.23L99.4,103.82
	z M139.67,126.92c-2.85-1.55-5.71-2.34-8.39-2.34c-1.44,0-2.82,0.23-4.11,0.68l-0.16-28.6c3.91-2.51,7.07-0.94,9.61,0.32
	c0.93,0.46,1.74,0.86,2.49,1.02c1.95,0.4,3.5,0.25,4.27,0.12l0.32,28.93C142.64,127.62,141.21,127.31,139.67,126.92z M148.7,103.18
	l-0.04-0.17c-0.18-0.41-0.47-0.96-0.69-1.38l3.87,0.02l0.24,33.86h-24.89l0.07-1.88l21.66-0.03L148.7,103.18z M126.7,75.77
	c-0.08-5.29-0.19-11.76-0.28-15.93c0.48-1.41,2.04-1.99,3.32-2.05c2.79,0,4.89,0.9,6.21,2.63c0.95,1.46,1.11,3.82,0.37,5.62
	c-0.83,2.35-2.76,3.61-4.81,4.95C129.61,72.24,127.64,73.52,126.7,75.77z M107.54,101.67l-0.16-0.24l4.03-0.08l0.03,0.13
	c0.01,0.04,0.78,3.56,1.55,5.17c0.89-1.59,1.95-5.08,1.96-5.11l0.03-0.11l0.12,0l3.61-0.05l-0.52,0.3c-0.52,0.3-1.1,0.65-1.24,0.75
	c-1.22,3.46-2.41,6.31-3.52,8.47l-0.05,0.09h-0.69l-0.05-0.08c-0.95-1.76-1.9-3.89-2.81-5.95c-0.41-0.91-0.8-1.8-1.18-2.62
	c-0.03-0.01-0.08-0.03-0.13-0.05C108.24,102.18,107.77,102.02,107.54,101.67z M130.44,104.58c0.16,2.04,0.34,4.35-0.62,5.04
	l0.12,0.28c0.82-0.13,1.76-0.08,2.66-0.02c0.5,0.03,1.01,0.06,1.51,0.06c1.41,0,2.77-0.24,3.79-1.42c1.08-1.32,1.42-3.08,0.97-4.96
	l-0.01-0.02c-1.33-3.11-5.12-2.48-7.89-2.03c-0.45,0.07-0.87,0.14-1.25,0.19l-0.32,0.04l0.93,0.93
	C130.34,103.23,130.39,103.89,130.44,104.58z M133.07,102.81c0.89-0.04,2.33,0.08,3.09,1.22c0.53,1.78-0.07,2.79-0.67,3.32
	c-0.78,0.69-1.9,0.88-2.34,0.77C133.01,106.27,133.04,103.44,133.07,102.81z M161.43,119.91l2.04-0.14
	c-1.22-1.62-1.89-4.12-0.78-5.79c0.88-1.77,3.06-3.59,5.18-3.59c0.04,0,0.08,0,0.11,0c2.47-0.17,4.5,0.96,6.19,3.41l0.01,0.01
	c1.11,2.05,0.25,4.46-0.88,6.01c0.42-0.01,1.19-0.03,1.72-0.04l0.24-0.01l-1.15,2.73l-4.39,0.05l0.04-0.19
	c0.17-0.78,0.55-1.62,0.96-2.52c1.06-2.31,2.15-4.7-0.1-6.67c-0.99-0.91-2.49-1.18-3.57-0.64c-1.52,0.91-2.37,2.61-2.16,4.33
	c0.2,1.61,2.27,5.37,2.29,5.41l0.15,0.26l-0.3-0.03c-0.77-0.08-4.6,0-4.63,0l-0.12,0L161.43,119.91z M106.41,122.23l-0.6-0.01
	l0.15-0.24c0.11-0.18,0.28-0.33,0.44-0.48c0.29-0.27,0.57-0.53,0.58-0.94l0.01-0.06c0.46-1.09,0.81-2.29,1.15-3.46
	c0.41-1.39,0.83-2.84,1.43-4.04l0.11-0.23l0.15,0.21c0.59,0.8,1,1.85,1.4,2.86c0.33,0.84,0.68,1.71,1.12,2.43
	c0.45-0.79,0.76-1.61,1.06-2.41c0.39-1.03,0.76-2.01,1.39-2.87l0.17-0.23l0.11,0.26c0.51,1.26,0.95,2.9,1.39,4.5
	c0.36,1.32,0.7,2.58,1.07,3.61l1.08,0.88l-0.31,0.07c-0.37,0.08-0.88,0.07-1.48,0.07c-0.57-0.01-1.21-0.02-1.79,0.06l-0.23,0.03
	l0.05-0.22c0.19-0.83-0.19-2.2-0.47-3.19c-0.03-0.11-0.06-0.21-0.09-0.31c-0.22,0.38-0.43,0.83-0.66,1.34
	c-0.33,0.71-0.69,1.51-1.22,2.38l-0.11,0.19l-0.14-0.17c-0.66-0.8-1.06-1.6-1.44-2.37c-0.23-0.46-0.46-0.93-0.75-1.41
	c-0.36,0.93-0.67,2.58-0.72,3.55l-0.01,0.13l-0.13,0.02C108.6,122.27,107.34,122.24,106.41,122.23z M87.67,121.3v-0.18l-1.81,0.26
	l-3.39-7.82l0.68-1.52l-5.04,0.13l-0.27,0.01l0.93,1.52l-2.94,7.81l-1.7-0.37l-0.02,0.17c-0.06,0.51,0.05,1.31,0.92,2.18l0.08,0.08
	l0.08-0.04c0.13-0.01,0.72,0.01,1.24,0.02c0.63,0.02,1.04,0.03,1.32,0.03c0.54,0,0.54-0.04,0.55-0.16c0.11-1.51,0.96-3.09,1.17-3.45
	l2.77,0.01c0.21,0.4,1.14,2.2,1.14,3.41v0.16l3.05,0.03h0.07l0.05-0.05C87.26,122.8,87.67,121.99,87.67,121.3z M81.57,117.96h-1.62
	l0.77-1.92L81.57,117.96z M139.7,121.6c-0.28-0.19-0.52-0.35-0.71-0.6c-0.45-1.03-0.84-2.1-1.24-3.23c-0.53-1.48-1.08-3-1.8-4.45
	l-0.05-0.09l-1.9,0.08l-0.04,0.07c-0.86,1.42-1.52,3.06-2.17,4.64c-0.44,1.07-0.85,2.09-1.3,3.01c-0.21,0.27-0.41,0.41-0.67,0.6
	c-0.08,0.06-0.17,0.12-0.27,0.19l-0.41,0.3l0.51-0.02c0.63-0.02,1.52-0.03,2.33-0.02c0.46,0,0.9,0,1.22,0l0.3,0l-0.18-0.24
	c-0.24-0.33,0.16-1.41,0.5-2.08l1.8-0.01c0.31,0.48,0.89,1.62,0.47,2.16l-0.2,0.26l0.33,0c0.49,0,0.97,0.01,1.42,0.01
	c0.35,0.01,0.69,0.01,1.02,0.01c0.46,0,0.9-0.01,1.31-0.06l0.4-0.04l-0.32-0.24C139.92,121.75,139.81,121.67,139.7,121.6z
	 M135.44,118.1l-1.39,0.01l0.64-1.64L135.44,118.1z M89.46,150.41c-1.42-0.17-2.09-1.74-2.62-3c-0.1-0.23-0.19-0.45-0.28-0.65
	l-0.04-0.13c-0.27-2.24,0.47-4.19,1.18-6.07c0.88-2.34,1.71-4.55,0.52-7.1l0.65-0.5c3.54,2.95,2.45,6.27,1.4,9.48
	c-0.8,2.44-1.63,4.97-0.38,7.36l0.37,0.7L89.46,150.41z M139.02,153.77l-0.23-0.14c-3.34-2.1-6.79-4.27-10.89-4.92
	c0.05-0.05,0.12-0.11,0.17-0.16c0.38-0.35,1.01-0.95,0.63-1.89l-0.01-0.03c-0.71-1.42-2.24-2.02-4.65-1.78l-0.31,0.1
	c-0.7,0.22-1.57,0.49-2.1,1.33c-0.89,0.89-0.19,1.82,0.22,2.34c-0.82,0.3-1.65,0.58-2.48,0.87c-3.2,1.09-6.51,2.21-9.28,4.44
	c-3.8,1.12-7.07-0.07-10.54-1.34c-3.02-1.1-6.15-2.24-9.68-1.77l-0.17,0.02L89,151.72l0.34,0.26c7.43,5.64,14.62,9.77,21.93,12.6
	c1.28,0.64,2.69,0.9,4.05,1.16c1.97,0.36,3.82,0.71,5.34,2.02c0.46,0.62,0.83,1.1-0.36,3.13c-1.05,1.43-2.03,1.5-3.27,1.59
	l-0.21,0.02c-0.66,0.05-1.31,0.07-1.93,0.08c-1.88,0.04-3.49,0.08-4.4,1.12c-0.58,0.66-0.78,1.65-0.63,3.04l0.04,0.37l0.37,0.01
	c1.39,0.02,2.76,0.03,4.12,0.03c7.17,0,13.95-0.29,21.07-0.59l4.83-0.2v-0.89c0.02-1.06-0.21-1.81-0.71-2.3
	c-0.75-0.74-1.95-0.69-3.1-0.65c-0.92,0.03-1.86,0.07-2.58-0.26l-0.13-0.04c-2.52-0.28-3.91-1.49-4.37-3.78
	c-0.03-0.27,0.16-0.79,0.56-1.22c0.3-0.32,0.64-0.5,0.91-0.48l0.06,0l2.71-0.71c10.01-2.62,20.36-5.33,28.69-12.19l0.11-0.09
	l0.03-0.14c0.21-0.92,0.39-2.6-0.81-3.58l-0.16-0.08c-6.85-1.8-13.29,0.53-19.51,2.79C141,153.07,140.01,153.43,139.02,153.77z
	 M152.77,155.32c-0.42,0.2-0.84,0.4-1.27,0.61c-2.99,1.5-6.26,2.92-9.94,3.17c0.18-1.32,1.73-2.22,3.11-3.02
	c0.29-0.17,0.57-0.33,0.82-0.49c3.61-1.8,7.21-2.64,10.71-2.48C155.49,154.04,154.21,154.64,152.77,155.32z M180.83,180.63
	c7.65-1.81,15.66-4.61,25.22-8.81l0.28-0.12l-0.03-0.31c-1.04-9.25-2.64-17.67-4.89-25.74c3.39-13.91,3.54-29.17,0.39-40.82
	c-5.88-27.29-31.26-53.04-57.82-58.67l-1.63-1.48c-5.93-5.42-12.07-11.02-18.54-15.36l-0.25-0.17l-0.24,0.19
	c-7.11,5.56-13.27,11.04-18.84,16.76C89.25,51.07,77.87,57.7,68.69,66.96c-21.64,20.98-29.58,52.15-20.76,81.38
	c-2.05,7.96-3.97,16.5-4.22,25.01l-0.01,0.29l0.27,0.11c7.86,3.14,15.72,5.78,24.05,8.05c9.23,8.81,19.78,15.1,32.26,19.23
	c7.78,2.25,15.66,3.34,23.45,3.34C145.17,204.37,165.79,196.05,180.83,180.63z M164.47,185.06c-19.31,14.16-50.63,16.48-72.28,5.13
	c-2.77-1.35-5.13-2.67-7.28-4.08C110.17,190.71,139.6,190.32,164.47,185.06z M115.68,43.97c2.74-2.8,5.75-5.32,7.94-7.05
	c3.77,2.36,6.73,4.66,8.82,6.86C126.36,43.21,120.73,43.58,115.68,43.97z M195.33,143.27c-3.58,12.95-9.99,24.01-19.06,32.88
	c-33.98,8.96-72.26,9.3-102.47,0.92c-9.67-9.78-15.82-19.94-18.82-31.05c9.36-34.68,26.65-65.77,51.41-92.41
	c12.33-3.19,26.47-3.2,36.96,0C168.33,78.92,185.34,108.26,195.33,143.27z M197.95,155.45c0.84,2.55,1.2,5.46,1.55,8.27
	c0.15,1.23,0.31,2.5,0.51,3.74c-3.67,1.81-7.6,3.19-11.46,4.51C191.6,167.42,195.21,161.65,197.95,155.45z M155.44,58.06
	c25.15,11.27,41.87,37.52,41.79,65.88l-0.3,5.5C187.96,103.77,174.01,79.78,155.44,58.06z M60.28,173.07
	c-2.66-0.7-6.72-1.98-10.28-4.01l1.65-10.05C54.1,163.97,56.99,168.69,60.28,173.07z M89.7,59.82l3.17-1.56
	c-19.04,23.45-32.85,48.52-41.09,74.56C48.23,102.97,62.97,74.47,89.7,59.82z M17.14,169.79c-2.47,0-4.48-2.01-4.48-4.48
	c0-2.47,2.01-4.48,4.48-4.48c2.47,0,4.48,2.01,4.48,4.48C21.63,167.78,19.62,169.79,17.14,169.79z M237.87,166.36
	c0,2.47-2.01,4.48-4.48,4.48c-2.47,0-4.48-2.01-4.48-4.48c0-2.47,2.01-4.49,4.48-4.49C235.86,161.87,237.87,163.88,237.87,166.36z
	 M26.63,192.61c-0.78,0.49-1.65,0.72-2.52,0.72c-2,0-4.06-1.22-5.42-3.39c-0.72-1.15-1.08-2.49-1.43-3.78l-0.19-0.68l2.72-1.92
	l0.47,0.68l-0.1,0.09c-0.95,0.87-2.01,2.36-0.22,5.21c0.54,0.86,1.33,1.49,2.22,1.77c0.89,0.28,1.78,0.18,2.52-0.29
	c1.47-0.92,1.12-2.82,0.75-4.82c-0.44-2.38-0.94-5.08,1.54-6.63c2.33-1.47,5.57-0.35,7.38,2.53c0.67,1.07,0.98,2.01,1.3,3
	c0.06,0.18,0.12,0.37,0.18,0.56l0.04,0.11l-2.64,1.8l-0.47-0.67l0.1-0.09c0.72-0.67,1.92-1.79,0.43-4.16
	c-0.53-0.85-1.27-1.48-2.07-1.78c-0.8-0.3-1.61-0.24-2.26,0.17c-1.5,0.94-1.15,2.76-0.75,4.86
	C28.66,188.3,29.18,191.02,26.63,192.61z M30.77,204.87l0.07,0.12l-0.59,0.48l-0.1-0.12c-0.07-0.09-0.24-0.31-0.45-0.6
	c-0.36-0.48-0.86-1.14-1.22-1.59c-0.37-0.46-0.92-1.08-1.33-1.54c-0.24-0.27-0.43-0.49-0.5-0.57l-0.1-0.12l0.58-0.48l0.13,0.12
	c1.05,0.93,1.05,0.94,3.69-1.22l6.42-5.22c2.52-2.05,2.51-2.07,1.79-3.3l-0.07-0.12l0.58-0.48l0.1,0.12
	c0.07,0.09,0.25,0.32,0.47,0.61c0.36,0.48,0.86,1.14,1.23,1.6c0.36,0.45,0.91,1.06,1.3,1.51c0.24,0.27,0.43,0.48,0.5,0.57l0.1,0.12
	l-0.59,0.48l-0.1-0.09c-1.07-0.96-1.07-0.97-3.72,1.19l-6.29,5.11C30.04,203.62,30.06,203.64,30.77,204.87z M46.69,202.13
	c-2.35,0.11-4.57,1.14-6.09,2.82c-3.28,3.64-2.82,9.03,1.07,12.53c1.66,1.49,3.87,2.34,6.1,2.34c0.07,0,0.13,0,0.2,0
	c2.37-0.05,4.53-1.03,6.08-2.75c3.32-3.68,3-9.19-0.72-12.54C51.49,202.87,49.15,202.02,46.69,202.13z M42.41,216.65
	c-2.82-2.54-2.66-6.26,0.43-9.69c1.56-1.73,3.27-2.8,4.94-3.09c0.31-0.05,0.62-0.08,0.92-0.08c1.37,0,2.69,0.54,3.85,1.59
	c2.53,2.28,2.21,6.34-0.76,9.64c-1.49,1.65-3.12,2.7-4.71,3.01C45.38,218.38,43.81,217.91,42.41,216.65z M77.87,223.17
	c-0.21-0.08-0.45-0.16-0.68-0.24c-0.4,0.6-1.55,2.53-1.9,3.14l-0.55,0.96c-0.23,0.4-0.47,0.85-0.71,1.29
	c-0.23,0.43-0.46,0.84-0.66,1.2c-1.56,2.7-3.23,4.11-5.44,4.57c-0.41,0.08-0.82,0.12-1.23,0.12c-1.33,0-2.7-0.42-4.16-1.26
	c-3.82-2.2-4.79-6.02-2.52-9.96l1.8-3.12c0.91-1.59,2.02-3.59,2.43-4.41c-0.37-0.33-0.86-0.72-1.23-1.01l-0.21-0.16l0.37-1.06
	l0.4,0.27c0.51,0.34,1.78,1.14,2.6,1.61c0.93,0.54,2.52,1.4,3.04,1.65l0.49,0.24l-0.87,0.79l-0.22-0.1c-0.6-0.26-1.37-0.6-2.04-0.86
	c-0.45,0.68-1.69,2.76-2.63,4.38l-1.13,1.96c-2.32,4.03-2.02,7.05,0.88,8.73c1.33,0.76,2.59,1.05,3.57,0.79
	c1.98-0.5,3.01-2.28,3.84-3.72l1.36-2.36c0.47-0.81,2.17-3.81,2.68-4.84c-0.48-0.39-1.35-1.05-1.77-1.34l-0.18-0.12l0.13-1.25
	l0.51,0.35c0.48,0.33,1.96,1.24,2.77,1.7c1.04,0.6,2.14,1.18,2.5,1.34l0.54,0.24l-0.92,0.75l-0.19-0.06
	C78.35,223.34,78.13,223.26,77.87,223.17z M96.55,228.66l0.15,0.05l-0.24,0.7l-0.11,0c-0.01,0-0.03,0-0.05,0
	c-1.37,0-2.81,1.03-4.18,2.08l-3.28,2.51l1.53,6.85c0.33,1.61,0.64,2.71,1.84,3.41l0.11,0.07l-0.25,0.71l-0.15-0.05
	c-0.1-0.03-0.34-0.13-0.65-0.25c-0.6-0.24-1.43-0.56-2.03-0.76c-0.56-0.19-1.39-0.45-2-0.63c-0.39-0.12-0.71-0.22-0.85-0.26
	l-0.15-0.05l0.25-0.71l0.27,0.05c0.55,0.1,0.98,0.16,1.08-0.13c0.02-0.06,0.04-0.32-0.18-1.54l-1.13-5.18l-4,3.22
	c-0.09,0.08-0.19,0.16-0.28,0.23c-0.36,0.29-0.7,0.57-0.88,0.89c-0.13,0.39,0.56,0.79,0.9,0.98l0.11,0.07l-0.03,0.13l-0.2,0.59
	L82,241.56c-0.39-0.13-0.78-0.29-1.16-0.44c-0.37-0.15-0.75-0.3-1.13-0.43c-0.39-0.14-0.8-0.25-1.18-0.37
	c-0.38-0.11-0.77-0.22-1.16-0.36l-0.15-0.05l0.24-0.7l0.12,0.01c1.54,0.09,2.15-0.34,3.75-1.58l4.87-3.69l-1.47-6.42
	c-0.26-1.21-0.61-2.01-1.73-2.72l-0.1-0.07l0.24-0.7l0.15,0.05c0.14,0.05,0.46,0.17,0.86,0.33c0.63,0.24,1.42,0.55,2.01,0.75
	c0.59,0.21,1.44,0.47,2.06,0.65c0.38,0.11,0.68,0.21,0.81,0.25l0.15,0.05l-0.24,0.71l-0.12-0.01c-0.12-0.01-0.23-0.02-0.33-0.04
	c-0.68-0.07-0.89-0.07-0.99,0.22c-0.09,0.26-0.02,0.57,0.05,0.9l0.02,0.11l0.97,4.47l3.54-2.81c0.33-0.27,0.7-0.57,0.77-0.79
	c0.12-0.34-0.08-0.47-0.66-0.82c-0.1-0.06-0.22-0.13-0.33-0.2l-0.11-0.07l0.24-0.7l0.15,0.05c0.25,0.09,0.58,0.22,0.92,0.36
	c0.41,0.17,0.84,0.34,1.24,0.47c0.39,0.13,0.79,0.25,1.18,0.36C95.85,228.44,96.21,228.54,96.55,228.66z M124.43,232.38l0.25,3.13
	l-0.64,0.01l-0.15-0.36c-0.47-1.18-0.69-1.71-3.34-1.86c-0.82-0.04-1.64-0.02-2.55,0.01l-0.37,6.54l2.09,0.12
	c2.96,0.16,3.01-0.01,3.4-1.4l0.03-0.12l0.14-0.03l0.57,0.03l-0.01,0.16c-0.01,0.2-0.05,0.52-0.08,0.88
	c-0.05,0.46-0.11,0.99-0.13,1.43c-0.02,0.41-0.03,1-0.04,1.43c-0.01,0.26-0.01,0.47-0.01,0.57l-0.01,0.15l-0.75,0l-0.01-0.15
	c-0.07-1.3-0.09-1.5-3.18-1.68l-2.09-0.12l-0.19,3.41c-0.18,3.24-0.2,3.58,1.56,3.73l0.15,0.01l-0.04,0.78l-0.16-0.01
	c-0.37-0.03-0.73-0.06-1.1-0.1c-0.65-0.06-1.32-0.12-1.98-0.16c-0.63-0.04-1.25-0.05-1.85-0.06c-0.31,0-0.62-0.01-0.93-0.02l-0.16,0
	l0.04-0.76l0.14-0.01c1.37-0.1,1.43-0.1,1.62-3.56l0.5-8.9c0.16-2.55,0.16-2.65-1.26-2.91l-0.14-0.03l0.04-0.76l0.16,0.01
	c0.46,0.02,0.92,0.07,1.37,0.12c0.46,0.05,0.93,0.09,1.4,0.12c1.61,0.09,3.97,0.19,5.69,0.26c0.92,0.04,1.62,0.07,1.85,0.08
	L124.43,232.38z M145.88,246.98c-1.22-0.01-1.67-0.88-2.18-1.88l-6.93-13.47l-0.58,0.08c-0.5,0.08-1.07,0.16-1.57,0.21
	c-0.57,0.05-1.23,0.08-1.77,0.11l-0.53,0.02l0.07,0.75l0.13,0.01c0.14,0.01,0.27,0.02,0.4,0.03c1.01,0.08,1.5,0.14,1.55,0.61
	c0.03,0.27-0.07,0.58-0.18,0.91c-0.03,0.09-0.06,0.18-0.08,0.26l-3.62,11.57c-0.32,1.03-0.68,2.2-1.68,2.43l-0.13,0.03l0.07,0.76
	l0.16-0.02c0.25-0.04,0.51-0.07,0.76-0.11c0.47-0.07,0.96-0.14,1.44-0.19c0.47-0.05,0.96-0.07,1.44-0.09
	c0.26-0.01,0.52-0.03,0.78-0.04l0.16-0.01l-0.07-0.76l-0.14,0c-0.07,0-0.15,0-0.23-0.01c-0.64-0.01-1.07-0.05-1.11-0.5
	c-0.02-0.25,0.15-0.94,0.3-1.56l1.12-4.02l5.36-0.52l1.65,3.25c0.07,0.16,0.15,0.31,0.23,0.47c0.28,0.56,0.56,1.14,0.59,1.45
	c0.04,0.43-0.37,0.57-1.04,0.74l-0.3,0.08l0.07,0.75l0.16-0.02c0.35-0.04,0.7-0.09,1.05-0.14c0.63-0.08,1.28-0.17,1.93-0.24
	c0.6-0.06,1.23-0.1,1.83-0.13c0.32-0.02,0.63-0.04,0.95-0.06l0.16-0.01l-0.07-0.76L145.88,246.98z M138.14,240.16l-4.31,0.42
	l1.72-5.93L138.14,240.16z M162.64,239.94l0.8-0.12l-0.09,3.52l-0.11,0.03c-0.24,0.07-0.93,0.24-1.84,0.47
	c-1.64,0.42-4.11,1.05-5.76,1.5c-0.65,0.18-1.63,0.48-2.27,0.68c-0.34,0.11-0.6,0.19-0.69,0.21l-0.15,0.04l-0.2-0.74l0.13-0.05
	c1.42-0.54,1.47-0.83,0.63-3.94l-2.12-7.82c-0.89-3.27-0.96-3.35-2.32-3.14l-0.14,0.02l-0.2-0.74l0.15-0.04
	c0.1-0.03,0.36-0.09,0.69-0.16c0.6-0.14,1.43-0.33,2.02-0.49c0.58-0.16,1.41-0.41,2.02-0.6c0.37-0.11,0.66-0.21,0.78-0.24l0.15-0.04
	l0.21,0.76l-0.13,0.05c-1.53,0.65-1.45,0.96-0.64,3.91l2.91,10.73c0.91-0.19,1.86-0.4,2.78-0.65c2.92-0.79,3.03-1.33,3.35-2.9
	L162.64,239.94z M179.87,232.96l0.44,3.5l-0.11,0.05c-0.23,0.1-0.91,0.39-1.79,0.76c-1.64,0.69-3.89,1.64-5.44,2.32
	c-0.6,0.27-1.47,0.68-2.1,0.99c-0.34,0.17-0.61,0.29-0.7,0.33l-0.14,0.06l-0.31-0.7l0.12-0.07c1.33-0.75,1.33-1.04,0.04-3.99
	l-3.25-7.43c-1.36-3.1-1.43-3.18-2.76-2.76l-0.14,0.04l-0.31-0.7l0.15-0.06c0.1-0.04,0.36-0.15,0.68-0.27
	c0.57-0.22,1.35-0.53,1.9-0.77c0.54-0.24,1.31-0.61,1.87-0.88c0.36-0.18,0.66-0.32,0.78-0.37l0.15-0.06l0.31,0.72l-0.12,0.07
	c-1.42,0.87-1.29,1.16-0.06,3.97l4.47,10.19c0.83-0.31,1.76-0.67,2.65-1.05c2.78-1.22,2.8-1.76,2.88-3.37l0.01-0.27L179.87,232.96z
	 M193.2,222.98c0.76,1.21,0.92,2.67,0.46,4.13c-0.47,1.5-1.58,2.85-3.12,3.81c-1.14,0.72-2.47,1.08-3.75,1.43
	c-0.2,0.05-0.4,0.11-0.6,0.16l-0.11,0.03l-1.92-2.72l0.68-0.47l0.09,0.1c0.87,0.95,2.36,2.01,5.21,0.22
	c1.79-1.12,2.44-3.2,1.48-4.74c-0.92-1.47-2.82-1.12-4.83-0.75c-2.38,0.44-5.08,0.93-6.63-1.55c-0.7-1.11-0.82-2.49-0.35-3.87
	c0.47-1.39,1.5-2.63,2.88-3.5c1.06-0.67,1.99-0.97,2.97-1.29c0.19-0.06,0.38-0.12,0.58-0.19l0.11-0.04l1.8,2.64l-0.67,0.47
	l-0.09-0.1c-0.67-0.71-1.78-1.92-4.16-0.43c-0.85,0.53-1.48,1.27-1.78,2.07c-0.3,0.8-0.24,1.61,0.17,2.26
	c0.94,1.5,2.75,1.15,4.86,0.75C188.89,220.95,191.61,220.43,193.2,222.98z M216.31,202.03c1.04,0.97,1.58,2.35,1.5,3.87
	c-0.07,1.57-0.8,3.16-2.04,4.49c-0.92,0.99-2.12,1.68-3.27,2.35l-0.61,0.36l-2.56-2.14l0.53-0.63l0.12,0.07
	c1.09,0.7,2.8,1.33,5.1-1.13c0.7-0.74,1.1-1.66,1.14-2.59c0.04-0.93-0.29-1.77-0.93-2.36c-1.26-1.18-3.01-0.35-4.85,0.52
	c-2.19,1.04-4.66,2.21-6.81,0.22c-2.01-1.88-1.77-5.29,0.55-7.78c0.86-0.92,1.68-1.45,2.54-2.01c0.17-0.11,0.34-0.22,0.51-0.34
	l0.1-0.07l0.09,0.08l2.33,2.01l-0.53,0.63l-0.12-0.07c-0.83-0.52-2.23-1.39-4.13,0.65c-1.42,1.52-1.61,3.5-0.44,4.6
	c1.29,1.21,2.96,0.4,4.89-0.53C211.62,201.18,214.11,199.98,216.31,202.03z M227.27,180.77c-2.07-1.35-4.42-1.82-6.62-1.31
	c-2.28,0.52-4.28,2-5.76,4.29c-0.37,0.57-0.74,1.24-1.14,1.96c-0.42,0.76-0.85,1.54-1.3,2.23c-0.47,0.71-1.08,1.57-1.48,2.14
	l-0.18,0.26l0.64,0.42l0.09-0.11c0.9-1.05,1.04-1.03,3.82,0.79l6.79,4.43c2.86,1.86,2.84,1.89,2.27,3.18l-0.06,0.12l0.64,0.41
	l0.08-0.14c0.11-0.18,0.22-0.37,0.32-0.56c0.21-0.37,0.43-0.75,0.67-1.11c0.47-0.72,0.99-1.42,1.5-2.1c0.51-0.69,1.04-1.4,1.53-2.14
	C232.29,188.59,231.58,183.58,227.27,180.77z M229.5,188.36c0.22,2.09-0.94,4.45-3.46,7l-11.85-7.79c1.22-3.09,2.9-5,4.98-5.67
	c2.44-0.79,4.87,0.3,6.47,1.35C228.01,184.78,229.3,186.5,229.5,188.36z M19.51,149.52l0.04,0.13l0.76-0.12l-0.03-0.16
	c-0.05-0.26-0.1-0.51-0.15-0.77c-0.09-0.46-0.19-0.94-0.27-1.42c-0.07-0.48-0.13-0.98-0.18-1.47c-0.02-0.24-0.05-0.49-0.08-0.74
	l-0.02-0.16l-0.76,0.12l0,0.14c0,0.07,0.01,0.15,0.01,0.22c0.02,0.65,0.01,1.08-0.44,1.15c-0.25,0.04-0.96-0.1-1.58-0.22l-4.07-0.89
	l-0.82-5.32l3.15-1.83c0.14-0.08,0.29-0.16,0.43-0.24c0.56-0.31,1.13-0.64,1.45-0.69c0.03,0,0.06-0.01,0.09-0.01
	c0.36,0,0.52,0.39,0.71,1.02l0.09,0.29l0.75-0.11l-0.03-0.16c-0.06-0.33-0.12-0.65-0.19-0.98c-0.12-0.65-0.25-1.32-0.35-1.98
	c-0.1-0.61-0.17-1.25-0.24-1.87c-0.03-0.3-0.07-0.59-0.1-0.89l-0.02-0.16l-0.76,0.11l0.01,0.14c0.06,1.22-0.78,1.71-1.76,2.28
	l-12.97,7.61l-0.1,0.06l0.11,0.54c0.11,0.51,0.23,1.08,0.31,1.58c0.09,0.59,0.16,1.26,0.21,1.8l0.05,0.48l0.75-0.11l0-0.13
	c0-0.14,0.01-0.27,0.01-0.4c0.02-1.02,0.05-1.51,0.52-1.58c0.25-0.04,0.57,0.04,0.9,0.13c0.1,0.02,0.19,0.05,0.28,0.07L17,147.98
	C18.04,148.24,19.23,148.54,19.51,149.52z M11.2,145.06l-6.01-1.39l5.35-2.89L11.2,145.06z M7.03,125.3
	c-1.84-0.1-4.11-0.19-5.03-0.18c-0.12,0.46-0.25,1.06-0.35,1.55l-0.05,0.25l-1.1,0.15l0.06-0.47c0.08-0.66,0.21-2.17,0.26-3.05
	c0.06-1.08,0.11-2.89,0.1-3.46l-0.01-0.55l1.1,0.42l0.01,0.24c0.04,0.72,0.08,1.53,0.15,2.21c0.81,0.09,3.24,0.27,5.1,0.37
	l2.26,0.12c2.47,0.13,4.37-0.26,5.62-1.17c1.09-0.8,1.68-1.99,1.77-3.55c0.08-1.53-0.24-2.79-0.9-3.54
	c-1.34-1.54-3.4-1.65-5.05-1.74l-2.72-0.15c-0.68-0.04-4.18-0.21-5.45-0.21c-0.03,0-0.05,0-0.08,0c-0.13,0.6-0.32,1.68-0.39,2.19
	l-0.03,0.22l-1.16,0.44l0.08-0.61c0.08-0.59,0.22-2.35,0.27-3.23c0.07-1.21,0.09-2.44,0.07-2.83l-0.04-0.6l1.09,0.49l0.03,0.19
	c0.03,0.18,0.06,0.41,0.09,0.66c0.03,0.23,0.06,0.49,0.1,0.75c0.7,0.08,2.93,0.24,3.66,0.28l1.11,0.06
	c0.46,0.03,0.97,0.04,1.48,0.06c0.48,0.01,0.96,0.03,1.36,0.05c3.12,0.17,5.13,1.03,6.53,2.79c1.08,1.37,1.54,3.11,1.42,5.32
	c-0.12,2.26-0.95,4.08-2.39,5.25c-1.35,1.09-3.2,1.6-5.35,1.5L7.03,125.3z M5.07,91.12c0.5-1.88,1.51-3.6,2.23-4.73l0.06-0.09
	l0.11,0.02l3.21,0.64l-0.16,0.79l-0.15-0.02c-1.53-0.19-3.47,0.95-4.27,3.97c-0.94,3.54,1.39,6.92,5.55,8.03
	c2.16,0.58,4.16,0.49,5.79-0.26c1.68-0.77,2.83-2.19,3.34-4.11c0.28-1.07,0.33-2.5,0.12-3.52l-2.62-0.7
	c-2.66-0.71-2.67-0.71-3.24,0.41c-0.06,0.12-0.12,0.25-0.2,0.39l-0.06,0.11l-0.78-0.21l0.04-0.15c0.03-0.12,0.12-0.4,0.23-0.75
	c0.18-0.59,0.43-1.41,0.59-2c0.14-0.52,0.31-1.32,0.43-1.85c0.06-0.26,0.1-0.46,0.11-0.51l0.04-0.15l0.71,0.19l0.02,0.22
	c0.08,0.98,0.08,0.98,3.03,1.77l3.19,0.85l0,0.12c-0.01,0.34-0.01,0.67-0.02,1.01c-0.03,1.75-0.06,3.55-0.54,5.36
	c-0.68,2.55-2.12,4.65-4.04,5.89c-1.31,0.84-2.82,1.28-4.39,1.28c-0.77,0-1.56-0.1-2.36-0.31C6.19,101.53,3.64,96.5,5.07,91.12z
	 M11.4,76.17l-1.07-0.32l0.25-0.41c0.34-0.56,1.07-1.86,1.49-2.68c0.47-0.92,1.28-2.57,1.51-3.11l0.21-0.5l0.83,0.83l-0.09,0.22
	c-0.17,0.45-0.52,1.33-0.77,2.08c0.71,0.42,2.85,1.58,4.5,2.43l2.01,1.04c2.2,1.14,4.08,1.56,5.6,1.24
	c1.32-0.28,2.35-1.13,3.07-2.51c0.7-1.36,0.93-2.64,0.63-3.6c-0.58-1.96-2.42-2.91-3.89-3.67l-2.42-1.25c-0.83-0.43-3.9-2-4.95-2.46
	c-0.36,0.5-0.98,1.39-1.25,1.83l-0.12,0.19l-1.24-0.08l0.33-0.52c0.31-0.5,1.16-2.05,1.57-2.84c0.56-1.09,1.09-2.2,1.22-2.56
	l0.22-0.57l0.79,0.9l-0.05,0.19c-0.05,0.19-0.12,0.42-0.2,0.68c-0.07,0.22-0.14,0.45-0.21,0.69c0.61,0.37,2.62,1.45,3.22,1.76
	l0.98,0.51c0.4,0.21,0.86,0.43,1.31,0.65c0.44,0.21,0.87,0.42,1.23,0.61c2.77,1.43,4.25,3.05,4.81,5.23
	c0.42,1.7,0.13,3.48-0.89,5.44c-1.04,2.01-2.54,3.33-4.34,3.8c-0.51,0.13-1.04,0.2-1.59,0.2c-1.25,0-2.57-0.35-3.9-1.04l-3.2-1.66
	c-1.63-0.84-3.68-1.86-4.51-2.23c-0.31,0.39-0.68,0.89-0.95,1.27L11.4,76.17z M27.04,47.68c0.77-1,1.54-1.6,2.36-2.24
	c0.15-0.12,0.31-0.24,0.47-0.37L29.96,45l2.6,1.86l-0.47,0.68l-0.12-0.06c-0.88-0.44-2.34-1.18-4.05,1.03
	c-1.28,1.65-1.28,3.63-0.01,4.62c1.4,1.08,2.98,0.13,4.82-0.97c2.09-1.26,4.47-2.68,6.84-0.84c2.4,1.86,2.49,5.46,0.23,8.38
	c-0.83,1.07-1.95,1.87-3.04,2.64l-0.58,0.41l-0.09-0.06l-2.65-1.83l0.47-0.68l0.12,0.06c1.15,0.59,2.91,1.07,4.97-1.59
	c0.62-0.8,0.94-1.76,0.9-2.69c-0.04-0.93-0.45-1.73-1.14-2.27c-1.37-1.06-3.03-0.08-4.79,0.96c-2.08,1.23-4.44,2.63-6.76,0.83
	C25.03,53.79,24.96,50.37,27.04,47.68z M35.38,38.4l-0.11-0.11l0.12-0.11c0.33-0.31,0.98-0.89,1.75-1.59
	c1.09-0.98,2.44-2.21,3.46-3.15c1.03-0.96,2.38-2.25,3.46-3.29c0.73-0.7,1.34-1.29,1.66-1.59l0.12-0.11l0.11,0.12
	c0.55,0.59,1.1,1.13,1.55,1.56c0.29,0.28,0.53,0.51,0.69,0.68l0.11,0.11l-0.59,0.56l-0.11-0.07c-1.74-1.23-2.15-0.88-5.13,1.88
	c0.18,0.2,0.4,0.47,0.65,0.77c0.41,0.49,0.91,1.1,1.41,1.65l5.52,5.94c2.37,2.54,2.37,2.55,3.76,1.47l0.11-0.09l0.53,0.56
	l-0.12,0.11c-0.25,0.23-0.51,0.45-0.77,0.67c-0.51,0.44-1.04,0.9-1.54,1.37c-0.49,0.46-0.98,0.95-1.45,1.42
	c-0.25,0.25-0.5,0.5-0.75,0.75l-0.12,0.11l-0.52-0.56l0.12-0.14c1.13-1.29,1.13-1.29-1.23-3.82l-5.49-5.89
	c-0.53-0.57-1.12-1.16-1.59-1.63c-0.26-0.26-0.49-0.49-0.66-0.67c-2.96,2.76-3.41,3.21-2.35,5.08l0.06,0.11l-0.63,0.59l-0.1-0.15
	C36.43,39.7,35.81,38.86,35.38,38.4z M55.3,22.61c0.93-0.4,1.4-0.58,1.66-0.18c0.14,0.22,0.2,0.54,0.25,0.88
	c0.02,0.1,0.03,0.19,0.05,0.29l2.13,11.94c0.19,1.06,0.42,2.27-0.37,2.93l-0.11,0.09l0.42,0.64l0.13-0.09
	c0.21-0.15,0.42-0.3,0.63-0.45c0.38-0.28,0.78-0.57,1.19-0.83c0.39-0.25,0.81-0.5,1.22-0.74c0.23-0.13,0.46-0.27,0.68-0.4l0.14-0.08
	l-0.41-0.64L62.79,36c-0.07,0.03-0.13,0.07-0.2,0.1c-0.59,0.3-0.97,0.45-1.22,0.07c-0.13-0.21-0.3-0.9-0.45-1.51l-0.87-4.09
	l4.51-2.94l2.96,2.12c0.13,0.1,0.26,0.19,0.4,0.29c0.51,0.38,1.05,0.76,1.22,1.03c0.24,0.36-0.06,0.67-0.58,1.14l-0.23,0.21
	l0.41,0.64l0.13-0.09c0.29-0.2,0.58-0.41,0.87-0.61c0.52-0.37,1.06-0.75,1.6-1.1c0.5-0.33,1.03-0.64,1.54-0.95
	c0.28-0.17,0.56-0.33,0.83-0.5l0.14-0.08l-0.42-0.64l-0.13,0.06c-1.09,0.56-1.88-0.01-2.8-0.66L58.23,19.8l-0.09-0.06l-0.49,0.36
	c-0.41,0.3-0.87,0.63-1.28,0.9c-0.47,0.31-1.04,0.64-1.49,0.9l-0.48,0.28l0.42,0.64L55.3,22.61z M58.46,22.99l4.84,3.68l-3.63,2.37
	L58.46,22.99z M71.54,12.71L71.27,12l0.16-0.05c0.17-0.06,0.34-0.11,0.51-0.17c0.44-0.15,0.9-0.29,1.33-0.46
	c0.4-0.16,0.81-0.34,1.2-0.52c0.18-0.08,0.37-0.17,0.56-0.25l0.08-0.04l0.07,0.05c0.7,0.49,1.55,0.97,2.51,1.43l12.46,6.4l-2.91-7.5
	c-1.31-3.38-1.31-3.38-2.85-3.08L83.9,7.91l-0.28-0.71l0.15-0.05c0.26-0.09,0.52-0.18,0.79-0.27c0.52-0.18,1.06-0.36,1.58-0.56
	c0.48-0.19,0.96-0.4,1.42-0.61c0.24-0.11,0.48-0.21,0.72-0.32l0.15-0.06l0.27,0.71l-0.12,0.07c-0.94,0.52-1.33,0.73,0.03,4.24
	l4.51,11.68l-1.19,0.28l-0.05-0.03l-15.5-7.91l2.78,7.17c1.45,3.74,1.55,3.83,3.13,3.51l0.13-0.03l0.28,0.71l-0.15,0.05
	c-0.27,0.1-0.55,0.19-0.82,0.28c-0.5,0.17-1.02,0.35-1.51,0.54c-0.5,0.19-0.98,0.41-1.45,0.62c-0.24,0.11-0.48,0.21-0.72,0.32
	l-0.15,0.06l-0.28-0.71l0.11-0.07c1.4-0.84,1.49-1.03,0.05-4.74l-3.03-7.81c-0.7-1.8-1.48-1.87-3.08-1.6L71.54,12.71z M99.35,19.89
	c0.24-0.05,0.48-0.1,0.72-0.15c0.47-0.1,0.96-0.21,1.46-0.29c0.46-0.08,0.96-0.13,1.43-0.19c0.26-0.03,0.51-0.06,0.77-0.09
	l0.16-0.02l-0.12-0.75l-0.14,0c-0.07,0-0.15,0-0.22,0.01c-0.64,0.04-1.07,0.02-1.15-0.43c-0.04-0.25,0.09-0.95,0.21-1.58l0.85-4.08
	l5.31-0.87l1.85,3.13c0.08,0.14,0.16,0.29,0.25,0.43c0.32,0.55,0.65,1.12,0.7,1.44c0.07,0.43-0.33,0.59-1,0.81l-0.3,0.1l0.12,0.75
	l0.16-0.03c0.34-0.07,0.68-0.13,1.02-0.2c0.63-0.13,1.28-0.26,1.93-0.36c0.6-0.1,1.22-0.17,1.83-0.25c0.31-0.04,0.62-0.08,0.93-0.12
	l0.16-0.02l-0.12-0.76l-0.14,0.01c-1.22,0.06-1.72-0.77-2.3-1.74l-7.71-12.9l-0.06-0.1l-0.11,0.02c-0.15,0.03-0.32,0.07-0.5,0.11
	c-0.48,0.11-1.03,0.23-1.51,0.3c-0.55,0.09-1.19,0.16-1.71,0.22l-0.58,0.07l0.12,0.75l0.53,0.01c1.02,0.01,1.51,0.04,1.59,0.51
	c0.04,0.27-0.04,0.58-0.12,0.91c-0.02,0.09-0.05,0.18-0.07,0.27l-2.88,11.79c-0.25,1.05-0.54,2.24-1.52,2.53l-0.13,0.04l0.13,0.75
	L99.35,19.89z M103.59,10.77l1.34-6.02l2.93,5.33L103.59,10.77z M138.38,1.68l-0.01-1.11l0.46,0.12c0.65,0.17,2.14,0.48,3,0.64
	c1.11,0.21,2.87,0.48,3.41,0.53l0.55,0.05l-0.56,1.04l-0.24-0.02c-0.44-0.03-1.4-0.11-2.21-0.13c-0.2,0.8-0.68,3.23-1.01,5.01
	l-0.41,2.23c-0.84,4.58,0.46,7.32,3.75,7.92c1.5,0.28,2.79,0.12,3.63-0.45c1.7-1.13,2.07-3.16,2.37-4.79l0.49-2.68
	c0.18-0.96,0.77-4.32,0.91-5.46c-0.58-0.2-1.61-0.53-2.12-0.67l-0.21-0.06l-0.29-1.2l0.6,0.16c0.53,0.14,2.26,0.51,3.17,0.67
	c1.27,0.23,2.44,0.4,2.8,0.42l0.61,0.03l-0.62,1.03l-0.19,0.01C156.06,5,155.82,5,155.55,5c-0.23,0-0.48,0-0.73,0.01
	c-0.17,0.7-0.62,2.93-0.74,3.59l-0.2,1.09c-0.08,0.45-0.16,0.96-0.24,1.46c-0.08,0.48-0.15,0.94-0.22,1.34
	c-0.56,3.07-1.67,4.96-3.59,6.12c-1.04,0.62-2.21,0.92-3.55,0.92c-0.6,0-1.24-0.06-1.91-0.18c-4.34-0.8-6.52-4.07-5.71-8.53
	l0.65-3.55c0.33-1.81,0.71-4.07,0.81-4.97c-0.37-0.15-0.87-0.33-1.5-0.54L138.38,1.68z M157.79,21.81l-0.15-0.06l0.29-0.7l0.13,0.03
	c1.61,0.36,1.79,0.28,3.31-3.4l3.19-7.75c0.74-1.79,0.22-2.37-1.13-3.28l-0.11-0.07l0.29-0.7l0.15,0.07
	c0.17,0.08,0.35,0.17,0.53,0.25c0.41,0.19,0.83,0.4,1.23,0.56c0.39,0.16,0.79,0.3,1.17,0.43c0.21,0.07,0.42,0.15,0.63,0.22
	l0.08,0.03l0.02,0.09c0.17,0.83,0.45,1.77,0.83,2.77l4.61,13.24l3.07-7.44c1.38-3.35,1.38-3.35,0.06-4.19l-0.42-0.27l0.29-0.7
	l0.15,0.07c0.26,0.12,0.52,0.24,0.77,0.35c0.49,0.23,1,0.46,1.51,0.67c0.47,0.19,0.96,0.37,1.44,0.54c0.25,0.09,0.5,0.18,0.75,0.27
	l0.15,0.06l-0.29,0.71l-0.13-0.04c-1.03-0.28-1.46-0.39-2.9,3.1l-4.79,11.57l-1.05-0.62l-5.79-16.48l-2.93,7.12
	c-1.53,3.71-1.53,3.84-0.15,4.7l0.11,0.07l-0.29,0.7l-0.15-0.07c-0.26-0.12-0.52-0.24-0.78-0.36c-0.48-0.22-0.98-0.46-1.47-0.66
	c-0.49-0.2-0.99-0.38-1.48-0.56C158.28,21.99,158.03,21.9,157.79,21.81z M180.22,31.4c1.29,0.55,1.29,0.55,3.1-2.34l4.4-7.01
	c1.73-2.75,1.71-2.77,0.64-3.69l-0.1-0.09l0.4-0.64l0.13,0.08c0.09,0.06,0.31,0.21,0.59,0.4c0.51,0.35,1.21,0.83,1.72,1.15
	c0.49,0.31,1.21,0.72,1.74,1.02c0.3,0.17,0.54,0.31,0.64,0.37l0.13,0.08l-0.4,0.64l-0.12-0.05c-1.33-0.57-1.33-0.57-3.14,2.32
	l-4.31,6.87c-1.82,2.89-1.8,2.91-0.73,3.84l0.1,0.09l-0.4,0.64L184.48,35c-0.1-0.06-0.33-0.22-0.62-0.42
	c-0.5-0.34-1.18-0.81-1.67-1.12c-0.52-0.32-1.26-0.75-1.79-1.06c-0.29-0.17-0.52-0.3-0.61-0.35l-0.13-0.08l0.4-0.64L180.22,31.4z
	 M196.13,44.51l-0.57-0.55l0.03-0.09l3.54-10.52c0.79-2.35,2.11-6.28,1.3-7.09l-0.1-0.11l0.51-0.58l0.12,0.11
	c0.25,0.23,0.5,0.47,0.75,0.7c0.48,0.45,0.93,0.88,1.41,1.3c0.46,0.4,0.93,0.79,1.39,1.17c0.25,0.21,0.51,0.41,0.77,0.63l0.12,0.1
	l-0.5,0.57l-0.27-0.17c-0.59-0.37-1-0.59-1.34-0.19c-0.33,0.38-1.39,3.59-1.95,5.32l-2.09,6.45l6.22-3.25
	c1.74-0.91,4.36-2.3,4.66-2.64c0.22-0.25,0.03-0.56-0.32-1.09l-0.18-0.28l0.49-0.56l0.12,0.11c0.22,0.21,0.44,0.41,0.65,0.62
	c0.37,0.36,0.76,0.73,1.15,1.08c0.36,0.32,0.74,0.62,1.11,0.92c0.19,0.15,0.38,0.3,0.57,0.45l0.13,0.1l-0.5,0.57l-0.12-0.07
	c-1.06-0.7-4.74,1.08-6.94,2.13L196.13,44.51z M218.77,43.81l-0.07-0.12l0.59-0.47l0.1,0.12c0.08,0.1,0.16,0.21,0.29,0.38
	c0.38,0.51,1.09,1.45,2.91,3.76c1.19,1.5,2.25,2.8,2.82,3.49c0.21,0.26,0.35,0.43,0.4,0.49l0.08,0.11l-2.07,2.11l-0.56-0.49
	l0.08-0.12c0.65-0.93,1.04-1.49-0.87-3.91c-0.67-0.84-1.21-1.41-1.5-1.71c-0.03-0.04-0.06-0.07-0.09-0.09l-4.86,3.84l1.64,2.08
	c1.46,1.85,1.68,1.71,2.74,1.11l0.15-0.09l0.49,0.62l-0.12,0.1c-0.1,0.08-0.39,0.28-0.73,0.52c-0.39,0.27-0.82,0.57-1,0.71
	c-0.28,0.22-0.61,0.49-0.9,0.74c-0.25,0.2-0.48,0.39-0.64,0.52l-0.12,0.1l-0.48-0.6l0.18-0.18c0.79-0.78,0.91-0.9-0.55-2.75
	l-1.65-2.08l-5.22,4.13c0.73,1.06,1.43,2.01,2.11,2.88c1.51,1.9,2.62,1.62,3.51,1.39l0.27-0.07l0.41,0.65l-3.24,1.44l-0.07-0.1
	c-0.24-0.31-0.54-0.71-0.91-1.19c-0.57-0.75-1.27-1.69-2.17-2.83c-1.33-1.69-2.6-3.22-3.22-3.96c-0.21-0.25-0.35-0.43-0.41-0.49
	l-0.1-0.12l0.59-0.47l0.1,0.09c1.03,0.95,1.14,0.92,3.74-1.14l6.32-5C219.47,45.07,219.47,45.07,218.77,43.81z M217.26,67.5
	l-0.08-0.11l-0.7,0.38l0.08,0.14c0.16,0.27,0.33,0.56,0.52,0.86c0.3,0.5,0.61,1.01,0.88,1.51c0.45,0.84,1.05,2.08,1.24,2.49
	l0.07,0.15l0.68-0.36l-0.05-0.13c-0.52-1.39-0.32-1.54,2.49-3.05l3.16-1.69l0.01,0.03c0.32,0.58,0.62,1.13,0.25,2.46
	c-0.25,0.84-1.32,2.85-2.27,4.62c-0.69,1.29-1.33,2.51-1.56,3.07l-0.03,0.07l0.04,0.07c0.12,0.2,0.24,0.4,0.36,0.6
	c0.24,0.4,0.47,0.77,0.68,1.17c0.18,0.34,0.35,0.71,0.5,1.04c0.05,0.12,0.1,0.23,0.15,0.34l0.07,0.15l0.66-0.35l-0.02-0.11
	c-0.03-0.13-0.06-0.26-0.1-0.4c-0.07-0.24-0.14-0.48-0.13-0.71c-0.01-0.41,0.68-1.7,1.4-3.06c0.91-1.7,2.02-3.79,2.44-5.35
	c0.85,1.12,2.94,2.58,5.37,1.27c2.36-1.26,2.76-4.32,1-7.6c-0.27-0.51-0.65-1.09-0.99-1.61c-0.27-0.42-0.51-0.78-0.64-1.02
	c-0.29-0.53-0.56-1.09-0.82-1.62c-0.14-0.28-0.27-0.56-0.41-0.84l-0.07-0.15l-0.67,0.36l0.1,0.29c0.34,0.97,0.41,1.17-1.28,2.08
	l-8.47,4.54C218.07,68.65,218.05,68.63,217.26,67.5z M226.48,67.18l5.78-3.1c1.21,1.36,1.74,2.68,1.54,3.82
	c-0.16,0.94-0.83,1.77-1.89,2.33c-0.96,0.51-1.86,0.62-2.68,0.31C228.13,70.13,227.2,69,226.48,67.18z M234.16,88.56
	c0.15-2.42,0.33-5.15,3.11-6.06c1.08-0.35,2.27-0.23,3.37,0.33c1.44,0.74,2.6,2.17,3.17,3.92c0.39,1.2,0.46,2.17,0.53,3.2
	c0.01,0.2,0.03,0.4,0.04,0.6l0.01,0.12l-3,1.1l-0.29-0.77l0.12-0.07c0.86-0.47,2.29-1.27,1.43-3.93c-0.31-0.95-0.87-1.74-1.57-2.23
	c-0.7-0.49-1.5-0.62-2.24-0.38c-1.68,0.54-1.79,2.39-1.91,4.53c-0.14,2.44-0.3,5.2-3.16,6.13c-0.47,0.15-0.96,0.23-1.44,0.23
	c-0.91,0-1.83-0.27-2.68-0.79c-1.33-0.82-2.38-2.23-2.94-3.96c-0.42-1.29-0.44-2.67-0.47-4l-0.01-0.71l3.11-1.2l0.29,0.77
	l-0.12,0.07c-1.13,0.61-2.52,1.8-1.49,5c0.65,2.01,2.51,3.14,4.23,2.59C233.91,92.53,234.03,90.6,234.16,88.56z M246.38,100.87
	l0-0.14l0.75-0.13l0.03,0.16c0.02,0.11,0.05,0.38,0.1,0.73c0.08,0.61,0.19,1.44,0.29,2.03c0.1,0.59,0.28,1.42,0.41,2.03
	c0.07,0.32,0.12,0.56,0.14,0.67l0.03,0.16l-0.75,0.13l-0.04-0.13c-0.46-1.37-0.45-1.37-3.83-0.79l-7.99,1.37
	c-3.36,0.57-3.36,0.6-3.35,2.02l0,0.13l-0.75,0.13l-0.03-0.15c-0.02-0.12-0.06-0.41-0.11-0.78c-0.08-0.59-0.18-1.4-0.28-1.95
	c-0.1-0.59-0.27-1.41-0.4-2.01c-0.07-0.35-0.13-0.62-0.15-0.72l-0.03-0.16l0.75-0.13l0.06,0.17c0.45,1.33,0.45,1.33,3.81,0.75
	l8.16-1.39C246.4,102.32,246.4,102.29,246.38,100.87z M249.5,129.57l-0.16,0c-0.79,0.02-1.55,0.07-2.15,0.11
	c-0.41,0.03-0.76,0.05-1.01,0.06l-0.16,0l-0.02-0.81l0.12-0.03c2.08-0.48,2.1-0.92,2.02-5.07c-0.26,0-0.6-0.02-0.98-0.03
	c-0.64-0.02-1.44-0.06-2.19-0.05l-8.11,0.15c-3.48,0.06-3.48,0.06-3.6,1.82l-0.01,0.14l-0.77,0.02v-0.16c0-0.35,0.01-0.7,0.01-1.05
	c0.01-0.67,0.02-1.36,0.01-2.04c-0.01-0.69-0.05-1.39-0.09-2.07c-0.02-0.34-0.04-0.68-0.05-1.01l-0.01-0.16l0.77-0.01l0.02,0.19
	c0.21,1.7,0.2,1.7,3.66,1.64l8.05-0.15c0.79-0.01,1.62-0.06,2.3-0.1c0.36-0.02,0.69-0.04,0.93-0.05c-0.07-4.05-0.11-4.68-2.21-5.14
	l-0.12-0.03l-0.01-0.86l0.18,0.02c1.47,0.16,2.51,0.25,3.15,0.25l0.16,0l0,0.16c0.01,0.45,0.01,1.32,0.01,2.35
	c0,1.47,0.01,3.3,0.03,4.69c0.03,1.38,0.09,3.2,0.14,4.67c0.04,1.06,0.07,1.95,0.07,2.4L249.5,129.57z M248.23,137.17l0.73,0.12
	l-0.02,0.15c-0.02,0.11-0.07,0.39-0.15,0.75c-0.12,0.58-0.28,1.38-0.37,1.94c-0.09,0.58-0.19,1.4-0.27,2.01
	c-0.04,0.34-0.07,0.6-0.09,0.7l-0.02,0.16l-0.73-0.12l-0.01-0.12c-0.01-0.06-0.01-0.13-0.02-0.21c-0.02-0.32-0.06-0.84-0.26-0.88
	c-0.23-0.02-0.81,0.17-1.22,0.33l-0.18,0.07l-5.32,2.18l4.45,3.69c0.3,0.23,0.93,0.73,1.18,0.76c0.23,0.02,0.35-0.32,0.51-0.86
	l0.1-0.34l0.75,0.12l-0.02,0.16c0,0.02-0.03,0.13-0.06,0.3c-0.1,0.45-0.28,1.28-0.36,1.78c-0.09,0.58-0.2,1.58-0.24,1.99l-0.02,0.17
	l-0.17,0l-0.6-0.1l0.01-0.14c0.04-0.61-0.4-1.3-1.33-2.1l-5.59-5.03l-4.91-0.8c-2.09-0.34-2.22,0.03-2.7,1.4l-0.04,0.12l-0.74-0.12
	l0.02-0.16c0-0.02,0.02-0.13,0.06-0.3c0.12-0.58,0.39-1.95,0.52-2.74c0.1-0.61,0.21-1.47,0.29-2.11c0.05-0.37,0.08-0.67,0.1-0.79
	l0.02-0.16l0.75,0.12l0,0.13c0,0.13-0.01,0.25-0.01,0.36c-0.04,0.98-0.05,1.27,2.29,1.65l4.75,0.77l6.06-2.65
	c1.17-0.5,2.28-0.97,2.82-2.1L248.23,137.17z M83.33,202.28c0.13-0.25,0.38-0.72,0.38-0.85c-0.05-0.06-0.43-0.28-0.61-0.38
	l-0.44-0.25l0.58-1.1l0.41,0.12c1.11,0.33,2.07,0.54,2.78,0.62l0.77,0.08l-0.36,0.69c-0.02,0.04-0.1,0.17-0.21,0.37
	c-0.26,0.46-0.73,1.26-1.06,1.89l-1.81,3.42c-1.03,1.95-1.03,1.95-0.4,2.42l0.36,0.27l-0.56,1.17l-0.81-0.46
	c-0.37-0.22-0.96-0.55-1.36-0.77c-0.33-0.18-0.72-0.37-1.08-0.54c-0.32-0.16-0.62-0.3-0.82-0.4l-0.46-0.25l0.6-1.14l0.43,0.16
	c0.83,0.3,0.83,0.3,1.88-1.68L83.33,202.28z M113.13,208.76c-0.63-0.8-1.54-1.3-2.55-1.41c-1.15-0.14-2.39,0.22-3.41,0.96
	c-1.05,0.77-1.73,1.88-1.87,3.04c-0.1,0.9,0.12,1.73,0.65,2.4c0.57,0.72,1.47,1.2,2.47,1.31c0.49,0.06,0.93,0.04,1.31-0.03
	c-0.78,0.69-1.78,1.16-3.44,1.63l-0.75,0.22l1.27,1.61l0.35-0.11c1.95-0.61,6.38-3.14,6.78-6.7
	C114.06,210.61,113.77,209.58,113.13,208.76z M109.42,213.28c-1.18-0.14-1.87-1.15-1.71-2.51c0.13-1.1,0.83-1.79,1.79-1.79
	c0.08,0,0.16,0,0.24,0.01c1.14,0.13,1.9,1.31,1.74,2.69c-0.06,0.53-0.3,0.97-0.68,1.25C110.42,213.22,109.93,213.34,109.42,213.28z
	 M138.95,215.08l-0.8-3.76c-0.06-0.28-0.17-0.8-0.25-0.89c-0.07-0.02-0.51,0.06-0.71,0.1l-0.5,0.09l-0.27-1.21l0.4-0.17
	c1.06-0.46,1.93-0.91,2.53-1.32l0.64-0.43l0.17,0.75c0.01,0.05,0.04,0.22,0.08,0.47c0.09,0.53,0.24,1.41,0.39,2.08l0.81,3.79
	c0.46,2.16,0.47,2.17,1.25,2.12l0.45-0.03l0.33,1.25l-0.52,0.11c-0.07,0.01-0.24,0.04-0.46,0.08c-0.42,0.07-1.05,0.18-1.47,0.27
	c-0.37,0.08-0.8,0.19-1.19,0.29c-0.34,0.08-0.65,0.16-0.86,0.21l-0.51,0.11l-0.27-1.26l0.43-0.16
	C139.42,217.29,139.42,217.29,138.95,215.08z M163.79,208.57c0.35,0.74,1.07,1.28,1.99,1.49c0.27,0.06,0.55,0.09,0.83,0.09
	c0.64,0,1.3-0.15,1.91-0.44c1.99-0.93,3.01-3.13,2.23-4.79c-0.57-1.22-1.68-1.5-2.68-1.58c0.35-0.68,0.57-1.6,0.13-2.51
	c-0.31-0.67-0.92-1.13-1.71-1.3c-0.73-0.16-1.53-0.05-2.28,0.3c-1.74,0.82-2.61,2.79-1.89,4.31c0.44,0.94,1.22,1.27,1.93,1.42
	C163.72,206.38,163.25,207.44,163.79,208.57z M165.99,205.74l0.1,0c0.83-0.04,2.54-0.09,2.9,0.67v0c0.12,0.26,0.11,0.58-0.05,0.9
	c-0.18,0.36-0.51,0.67-0.93,0.87c-0.5,0.24-1.04,0.28-1.51,0.1c-0.41-0.15-0.73-0.44-0.91-0.83
	C165.29,206.82,165.57,206.29,165.99,205.74z M166.35,203.24h-0.04c-0.91,0.02-2.04,0.04-2.31-0.54c-0.09-0.18-0.07-0.46,0.04-0.74
	c0.13-0.32,0.38-0.58,0.67-0.72c0.18-0.08,0.36-0.12,0.55-0.12c0.14,0,0.29,0.02,0.42,0.07c0.23,0.08,0.54,0.27,0.74,0.7
	C166.65,202.37,166.62,202.82,166.35,203.24z M31.62,125.58c-0.03,0.07-0.02,0.51-0.01,0.72l0.01,0.51l-1.25,0.06l-0.1-0.42
	c-0.28-1.11-0.58-2.05-0.88-2.71l-0.33-0.71l1.15-0.04c0.52,0,1.49-0.01,2.22-0.04l3.87-0.18c2.21-0.1,2.21-0.1,2.29-0.89l0.05-0.45
	l1.28-0.11l0.03,0.52c0,0.08,0.01,0.28,0.01,0.54c0,0.43,0.01,1.02,0.03,1.42c0.02,0.39,0.06,0.85,0.09,1.26
	c0.03,0.33,0.05,0.64,0.06,0.85l0.03,0.53l-1.29,0.06l-0.08-0.45c-0.16-0.87-0.15-0.87-2.41-0.76l-3.83,0.18
	C32.24,125.49,31.72,125.51,31.62,125.58z M41.12,99.1c1.35,0,2.72-1.06,3.31-2.69c0.4-1.11,0.37-2.33-0.1-3.33
	c-0.37-0.79-0.97-1.37-1.69-1.63c-1.27-0.46-2.25,0.13-3.01,0.77c-0.23-0.73-0.73-1.52-1.68-1.87c-1.38-0.5-2.92,0.43-3.53,2.11
	c-0.34,0.95-0.31,1.99,0.1,2.86c0.35,0.74,0.91,1.28,1.6,1.53c0.98,0.35,1.75,0.04,2.37-0.36c0.2,0.97,0.61,2.04,1.79,2.47
	C40.55,99.06,40.84,99.1,41.12,99.1z M39.91,95.33c0.57-0.6,1.75-1.85,2.53-1.57c0.62,0.22,0.87,1.1,0.56,1.95
	c-0.36,1.01-1.32,1.52-2.23,1.19c-0.67-0.24-0.84-0.81-0.93-1.5L39.91,95.33z M35.77,93.13c0.17-0.46,0.61-0.84,1.18-0.84
	c0.15,0,0.32,0.03,0.49,0.09c0.49,0.18,0.79,0.51,0.9,1.01l-0.02,0.02c-0.63,0.65-1.42,1.47-2.02,1.25
	c-0.17-0.06-0.35-0.25-0.46-0.49C35.67,93.83,35.65,93.46,35.77,93.13z M54.53,59.96l-1.38,0.17l-0.44,0.15l-0.03,0.43
	c-0.34,4.55,0.55,7.59,2.65,9.04c0.67,0.46,1.43,0.68,2.17,0.68c1.21,0,2.41-0.59,3.17-1.69c1.29-1.88,1.14-5.09-1.01-6.57
	c-1.6-1.1-3.66-0.68-4.79,0.97c-0.24,0.35-0.41,0.71-0.53,1.06c-0.17-0.9-0.13-1.89,0.1-3.56L54.53,59.96z M55.96,64.86
	c0.33-0.48,0.91-0.73,1.55-0.73c0.5,0,1.02,0.16,1.48,0.47c0.48,0.33,0.79,0.74,0.9,1.18c0.1,0.42,0.01,0.86-0.27,1.27
	c-0.67,0.98-2.1,1.17-3.18,0.42C55.56,66.86,55.35,65.74,55.96,64.86z M80.05,40.47c-1.22-0.3-2.48-0.11-3.53,0.52
	c-1,0.6-1.75,1.68-2.06,2.95c-0.34,1.4-0.12,2.9,0.62,4.12c0.78,1.29,1.93,2.22,3.23,2.6c0.46,0.13,0.92,0.2,1.37,0.2
	c0.84,0,1.66-0.23,2.4-0.68c2.01-1.22,3.02-4.39,1.33-7.18C82.63,41.71,81.43,40.81,80.05,40.47z M77.31,42.31
	c0.51-0.31,1.18-0.29,1.89,0.05c0.77,0.37,1.5,1.07,2.04,1.97c0.97,1.61,1.4,3.71,0.04,4.54c-0.51,0.31-1.18,0.28-1.9-0.06
	c-0.79-0.39-1.55-1.12-2.12-2.07C76.3,45.14,75.94,43.15,77.31,42.31z M171.31,48.37c-1.17,1.87-1.17,1.87-0.58,2.39l0.34,0.29
	l-0.64,1.12L170,51.9c-0.06-0.04-0.23-0.15-0.44-0.29c-0.35-0.24-0.85-0.58-1.2-0.79c-0.33-0.21-0.71-0.43-1.06-0.63
	c-0.3-0.17-0.57-0.33-0.76-0.45l-0.44-0.28l0.68-1.09l0.42,0.19c0.8,0.37,0.8,0.36,2-1.54l2.04-3.25c0.15-0.24,0.43-0.69,0.44-0.82
	c-0.04-0.06-0.41-0.31-0.59-0.42l-0.43-0.28l0.67-1.05l0.4,0.15c1.09,0.41,2.03,0.69,2.73,0.81l0.77,0.13l-0.63,0.97
	c-0.29,0.43-0.84,1.23-1.23,1.85L171.31,48.37z M191.51,64.29c-0.91-0.39-2.03-0.67-3.05,0.06c-1.37,0.97-1.5,3.15-0.29,4.86
	c0.62,0.87,1.49,1.49,2.47,1.75c0.31,0.08,0.63,0.12,0.93,0.12c0.63,0,1.22-0.17,1.7-0.51c1.1-0.78,1.18-1.92,1.09-2.92
	c0.73,0.23,1.67,0.28,2.49-0.31c0.6-0.43,0.95-1.11,0.98-1.91c0.02-0.74-0.22-1.52-0.69-2.19c-0.58-0.82-1.46-1.39-2.41-1.55
	c-0.8-0.14-1.57,0.02-2.17,0.44C191.71,62.74,191.53,63.55,191.51,64.29z M190.75,69.24c-0.44-0.07-0.86-0.36-1.17-0.8
	c-0.3-0.43-0.44-0.92-0.38-1.39c0.06-0.46,0.3-0.85,0.67-1.12c0.24-0.17,0.47-0.24,0.71-0.24c0.34,0,0.69,0.14,1.05,0.33l0.02,0.1
	c0.17,0.81,0.53,2.49-0.16,2.98C191.24,69.27,190.95,69.27,190.75,69.24z M195,63.44c0.33,0.07,0.63,0.27,0.82,0.53
	c0.36,0.51,0.36,1.31-0.33,1.8c-0.43,0.3-0.88,0.36-1.34,0.16l0-0.02c-0.18-0.9-0.4-2.01,0.12-2.39
	C194.44,63.41,194.72,63.38,195,63.44z M211.06,92.92c1.36-0.52,1.92-2.24,1.28-3.9c-0.36-0.94-1.07-1.7-1.95-2.09
	c-0.74-0.33-1.53-0.36-2.21-0.1c-0.97,0.38-1.35,1.12-1.55,1.83c-0.79-0.6-1.8-1.14-2.97-0.69c-0.78,0.3-1.35,0.97-1.62,1.88
	c-0.25,0.86-0.2,1.84,0.15,2.76c0.64,1.66,2.15,2.75,3.61,2.75c0.34,0,0.68-0.06,1-0.18c1.26-0.49,1.61-1.57,1.77-2.56
	C209.22,93,210.12,93.28,211.06,92.92z M208.78,90.89l0-0.03c0.05-0.91,0.11-2.04,0.7-2.27c0.17-0.06,0.43-0.04,0.67,0.07
	c0.33,0.15,0.6,0.42,0.72,0.74c0.22,0.58,0.03,1.36-0.76,1.67C209.62,91.25,209.18,91.19,208.78,90.89z M203.73,92.2
	c-0.19-0.49-0.2-1-0.02-1.44c0.17-0.43,0.5-0.75,0.92-0.92c0.16-0.06,0.31-0.09,0.46-0.09c0.45,0,0.84,0.27,1.23,0.61l0,0.09
	c-0.03,0.83-0.1,2.54-0.88,2.85h0c-0.29,0.11-0.57,0.04-0.76-0.04C204.26,93.08,203.92,92.69,203.73,92.2z M215.71,127.67
	c0.05,0,0.1,0,0.14,0c2.13,0,3.83-1.6,3.9-3.71c0.08-2.5-2.02-4.86-4.41-4.94c-1.92-0.05-3.37,1.37-3.44,3.41
	c-0.02,0.49,0.04,0.92,0.14,1.3c-0.75-0.73-1.29-1.68-1.89-3.29l-0.27-0.73l-1.51,1.39l0.14,0.34
	C209.26,123.34,212.14,127.55,215.71,127.67z M215.61,125.21c-0.03,0-0.07,0-0.1,0c-0.53-0.02-0.98-0.22-1.3-0.58
	c-0.3-0.35-0.46-0.82-0.45-1.34c0.04-1.16,0.94-1.91,2.24-1.91c0.04,0,0.08,0,0.11,0c0.61,0.02,1.11,0.22,1.46,0.58
	c0.32,0.33,0.49,0.79,0.47,1.29C218.01,124.35,216.93,125.21,215.61,125.21z"/>
</svg>
